<svg width="121" height="21" viewBox="0 0 121 21" fill="none" xmlns="http://www.w3.org/2000/svg">
<path d="M0.921847 16V1.39726H5.64152C7.04666 1.39726 8.25683 1.68972 9.27203 2.27464C10.294 2.85283 11.0738 3.68987 11.6117 4.78574C12.1495 5.8749 12.4185 7.17247 12.4185 8.67846C12.4185 10.1979 12.1462 11.5056 11.6016 12.6014C11.057 13.6973 10.2637 14.5377 9.22161 15.1226C8.17951 15.7075 6.92564 16 5.45999 16H0.921847ZM5.33897 14.3864C7.10045 14.3864 8.42491 13.8889 9.31237 12.8939C10.1998 11.8989 10.6436 10.4937 10.6436 8.67846C10.6436 6.88337 10.2099 5.49168 9.34262 4.50337C8.47533 3.50834 7.20129 3.01083 5.5205 3.01083H2.7371V14.3864H5.33897ZM18.0119 16.2219C16.9698 16.2219 16.0622 15.9899 15.289 15.526C14.5158 15.0621 13.9208 14.4066 13.504 13.5595C13.0939 12.7124 12.8888 11.7308 12.8888 10.6147C12.8888 9.49869 13.0939 8.51038 13.504 7.64982C13.9208 6.78253 14.5024 6.11021 15.2487 5.63286C16.0017 5.14879 16.8689 4.90676 17.8505 4.90676C18.6775 4.90676 19.4473 5.09165 20.1599 5.46142C20.8726 5.82447 21.4508 6.41611 21.8945 7.23634C22.345 8.04985 22.5702 9.0953 22.5702 10.3727V11.0988H14.6234C14.6503 11.8585 14.8083 12.5073 15.0974 13.0452C15.3865 13.583 15.7798 13.9931 16.2773 14.2755C16.7815 14.5512 17.3597 14.689 18.0119 14.689C18.6304 14.689 19.1515 14.5747 19.575 14.3461C20.0053 14.1108 20.3314 13.8082 20.5532 13.4385H22.4088C22.234 13.9898 21.9416 14.4772 21.5315 14.9008C21.1281 15.3176 20.6238 15.6437 20.0188 15.879C19.4204 16.1076 18.7514 16.2219 18.0119 16.2219ZM20.8155 9.62643C20.8155 9.01462 20.6911 8.47004 20.4423 7.9927C20.2003 7.50863 19.854 7.12877 19.4036 6.85312C18.9531 6.57747 18.4354 6.43964 17.8505 6.43964C17.2387 6.43964 16.6941 6.58419 16.2168 6.87329C15.7462 7.16239 15.373 7.55233 15.0974 8.04312C14.8285 8.52719 14.6738 9.05496 14.6335 9.62643H20.8155ZM28.0023 16H26.2072L22.1733 5.04795H24.0692L27.0543 13.741H27.1753L30.1604 5.04795H32.0563L28.0023 16ZM35.7401 12.8939C35.7401 11.7577 36.1267 10.9576 36.8998 10.4937C37.6797 10.0298 38.6647 9.75417 39.8547 9.66677C40.3119 9.63315 40.8228 9.6029 41.3876 9.57601C41.959 9.54239 42.4364 9.51886 42.8196 9.50541V8.61795C42.8196 7.91202 42.6078 7.3708 42.1843 6.99431C41.7674 6.61109 41.1523 6.41947 40.3387 6.41947C39.6732 6.41947 39.1286 6.5573 38.705 6.83295C38.2815 7.10188 38.0058 7.45484 37.8781 7.89185H36.0628C36.1368 7.30693 36.3654 6.78925 36.7486 6.3388C37.1318 5.88834 37.6394 5.53874 38.2714 5.28998C38.9101 5.0345 39.6261 4.90676 40.4194 4.90676C41.4682 4.90676 42.4162 5.17569 43.2633 5.71354C44.1104 6.24467 44.534 7.2666 44.534 8.77931V16H42.8196V14.5075H42.7389C42.6045 14.7898 42.396 15.0655 42.1137 15.3344C41.838 15.5966 41.475 15.8185 41.0245 16C40.5808 16.1748 40.0631 16.2622 39.4715 16.2622C38.7722 16.2622 38.1403 16.1277 37.5755 15.8588C37.0108 15.5899 36.5637 15.2033 36.2342 14.6991C35.9048 14.1881 35.7401 13.5864 35.7401 12.8939ZM37.4747 12.9746C37.4747 13.5326 37.6831 13.9629 38.0999 14.2654C38.5235 14.5612 39.0815 14.7092 39.774 14.7092C40.3993 14.7092 40.9405 14.5848 41.3976 14.336C41.8615 14.0873 42.2145 13.7578 42.4565 13.3477C42.6986 12.9376 42.8196 12.4972 42.8196 12.0266V10.9274L40.0564 11.119C39.2361 11.1728 38.6008 11.3509 38.1504 11.6535C37.6999 11.956 37.4747 12.3964 37.4747 12.9746ZM61.4288 16H59.6942L51.7878 4.62439H51.6466V16H49.8313V1.39726H51.5861L59.4925 12.793H59.6337V1.39726H61.4288V16ZM62.9883 5.04795H64.7229V16H62.9883V5.04795ZM63.8556 3.23269C63.5195 3.23269 63.2337 3.12176 62.9984 2.89989C62.7631 2.67803 62.6454 2.40574 62.6454 2.08303C62.6454 1.76031 62.7631 1.48803 62.9984 1.26616C63.2337 1.0443 63.5195 0.933364 63.8556 0.933364C64.1918 0.933364 64.4809 1.0443 64.7229 1.26616C64.9649 1.48803 65.086 1.76031 65.086 2.08303C65.086 2.40574 64.9649 2.67803 64.7229 2.89989C64.4809 3.12176 64.1918 3.23269 63.8556 3.23269ZM70.518 16.2219C69.5028 16.2219 68.6154 15.9832 67.8556 15.5058C67.1026 15.0218 66.5244 14.3528 66.1211 13.499C65.7177 12.6451 65.516 11.6703 65.516 10.5744C65.516 9.4718 65.721 8.49357 66.1311 7.63973C66.548 6.77916 67.1295 6.11021 67.8758 5.63286C68.6288 5.14879 69.4961 4.90676 70.4777 4.90676C71.2508 4.90676 71.9501 5.05131 72.5753 5.34041C73.2006 5.62278 73.7082 6.02617 74.0981 6.55058C74.4948 7.06826 74.7402 7.66999 74.8343 8.35575H73.0997C73.019 8.00614 72.8644 7.68679 72.6358 7.3977C72.4072 7.1086 72.1114 6.87665 71.7484 6.70185C71.392 6.52705 70.9819 6.43964 70.518 6.43964C69.8726 6.43964 69.3011 6.60772 68.8036 6.94388C68.3128 7.28004 67.9296 7.75739 67.6539 8.37592C67.385 8.98773 67.2506 9.70038 67.2506 10.5139C67.2506 11.3543 67.3817 12.0871 67.6439 12.7124C67.9128 13.3376 68.2926 13.8217 68.7834 14.1646C69.2809 14.5007 69.8591 14.6688 70.518 14.6688C71.1702 14.6688 71.7248 14.5041 72.182 14.1747C72.6459 13.8385 72.9518 13.3712 73.0997 12.7729H74.8343C74.7402 13.4317 74.5049 14.0234 74.1284 14.5478C73.7519 15.0655 73.2543 15.4756 72.6358 15.7781C72.0173 16.074 71.3113 16.2219 70.518 16.2219ZM80.1252 16.2219C79.0831 16.2219 78.1754 15.9899 77.4023 15.526C76.6291 15.0621 76.0341 14.4066 75.6173 13.5595C75.2072 12.7124 75.0021 11.7308 75.0021 10.6147C75.0021 9.49869 75.2072 8.51038 75.6173 7.64982C76.0341 6.78253 76.6157 6.11021 77.3619 5.63286C78.1149 5.14879 78.9822 4.90676 79.9638 4.90676C80.7908 4.90676 81.5606 5.09165 82.2732 5.46142C82.9859 5.82447 83.5641 6.41611 84.0078 7.23634C84.4582 8.04985 84.6835 9.0953 84.6835 10.3727V11.0988H76.7367C76.7636 11.8585 76.9216 12.5073 77.2107 13.0452C77.4998 13.583 77.8931 13.9931 78.3906 14.2755C78.8948 14.5512 79.473 14.689 80.1252 14.689C80.7437 14.689 81.2647 14.5747 81.6883 14.3461C82.1186 14.1108 82.4447 13.8082 82.6665 13.4385H84.5221C84.3473 13.9898 84.0549 14.4772 83.6447 14.9008C83.2414 15.3176 82.7371 15.6437 82.132 15.879C81.5337 16.1076 80.8647 16.2219 80.1252 16.2219ZM82.9287 9.62643C82.9287 9.01462 82.8043 8.47004 82.5556 7.9927C82.3136 7.50863 81.9673 7.12877 81.5169 6.85312C81.0664 6.57747 80.5487 6.43964 79.9638 6.43964C79.352 6.43964 78.8074 6.58419 78.3301 6.87329C77.8595 7.16239 77.4863 7.55233 77.2107 8.04312C76.9417 8.52719 76.7871 9.05496 76.7468 9.62643H82.9287ZM89.4564 16V1.39726H94.1761C95.5812 1.39726 96.7914 1.68972 97.8066 2.27464C98.8285 2.85283 99.6084 3.68987 100.146 4.78574C100.684 5.8749 100.953 7.17247 100.953 8.67846C100.953 10.1979 100.681 11.5056 100.136 12.6014C99.5916 13.6973 98.7982 14.5377 97.7561 15.1226C96.714 15.7075 95.4602 16 93.9945 16H89.4564ZM93.8735 14.3864C95.635 14.3864 96.9594 13.8889 97.8469 12.8939C98.7344 11.8989 99.1781 10.4937 99.1781 8.67846C99.1781 6.88337 98.7444 5.49168 97.8772 4.50337C97.0099 3.50834 95.7358 3.01083 94.055 3.01083H91.2716V14.3864H93.8735ZM101.423 12.8939C101.423 11.7577 101.81 10.9576 102.583 10.4937C103.363 10.0298 104.348 9.75417 105.538 9.66677C105.995 9.63315 106.506 9.6029 107.071 9.57601C107.642 9.54239 108.12 9.51886 108.503 9.50541V8.61795C108.503 7.91202 108.291 7.3708 107.868 6.99431C107.451 6.61109 106.836 6.41947 106.022 6.41947C105.356 6.41947 104.812 6.5573 104.388 6.83295C103.965 7.10188 103.689 7.45484 103.561 7.89185H101.746C101.82 7.30693 102.049 6.78925 102.432 6.3388C102.815 5.88834 103.323 5.53874 103.955 5.28998C104.593 5.0345 105.309 4.90676 106.103 4.90676C107.152 4.90676 108.099 5.17569 108.947 5.71354C109.794 6.24467 110.217 7.2666 110.217 8.77931V16H108.503V14.5075H108.422C108.288 14.7898 108.079 15.0655 107.797 15.3344C107.521 15.5966 107.158 15.8185 106.708 16C106.264 16.1748 105.746 16.2622 105.155 16.2622C104.456 16.2622 103.824 16.1277 103.259 15.8588C102.694 15.5899 102.247 15.2033 101.918 14.6991C101.588 14.1881 101.423 13.5864 101.423 12.8939ZM103.158 12.9746C103.158 13.5326 103.366 13.9629 103.783 14.2654C104.207 14.5612 104.765 14.7092 105.457 14.7092C106.083 14.7092 106.624 14.5848 107.081 14.336C107.545 14.0873 107.898 13.7578 108.14 13.3477C108.382 12.9376 108.503 12.4972 108.503 12.0266V10.9274L105.74 11.119C104.919 11.1728 104.284 11.3509 103.834 11.6535C103.383 11.956 103.158 12.3964 103.158 12.9746ZM112.261 20.1146C111.911 20.1146 111.589 20.1011 111.293 20.0742V18.5212C111.535 18.5481 111.817 18.5615 112.14 18.5615C112.429 18.5615 112.671 18.5313 112.866 18.4708C113.061 18.4103 113.256 18.259 113.451 18.017C113.646 17.7816 113.834 17.4119 114.016 16.9076L114.338 16.0807L110.284 5.04795H112.18L115.165 13.741H115.286L118.271 5.04795H120.167L115.528 17.5732C115.206 18.4271 114.775 19.0624 114.237 19.4792C113.7 19.9028 113.041 20.1146 112.261 20.1146Z" fill="url(#paint0_linear_869_559)"/>
<defs>
<linearGradient id="paint0_linear_869_559" x1="-1" y1="8.5" x2="121" y2="8.5" gradientUnits="userSpaceOnUse">
<stop stop-color="#E063FF"/>
<stop offset="1" stop-color="#DE6985"/>
</linearGradient>
</defs>
</svg>
