<svg width="40" height="40" viewBox="0 0 40 40" fill="none" xmlns="http://www.w3.org/2000/svg">
<path d="M20 18.5864L15.7063 14.2928C15.316 13.9024 14.6831 13.9024 14.2928 14.2928C13.9024 14.6831 13.9024 15.316 14.2928 15.7063L18.5864 20L14.2928 24.2937C13.9024 24.684 13.9024 25.3169 14.2928 25.7072C14.6831 26.0976 15.316 26.0976 15.7063 25.7072L20 21.4136L24.2937 25.7072C24.684 26.0976 25.3169 26.0976 25.7072 25.7072C26.0976 25.3169 26.0976 24.684 25.7072 24.2937L21.4136 20L25.7072 15.7063C26.0976 15.316 26.0976 14.6831 25.7072 14.2928C25.3169 13.9024 24.684 13.9024 24.2937 14.2928L20 18.5864Z" fill="white"/>
</svg>
