<svg width="20" height="20" viewBox="0 0 20 20" fill="none" xmlns="http://www.w3.org/2000/svg">
<path d="M10.0002 4.93337C10.2124 4.93337 10.4159 4.84909 10.5659 4.69906C10.7159 4.54903 10.8002 4.34555 10.8002 4.13337C10.8002 3.9212 10.7159 3.71772 10.5659 3.56769C10.4159 3.41766 10.2124 3.33337 10.0002 3.33337C9.78802 3.33337 9.58454 3.41766 9.43451 3.56769C9.28448 3.71772 9.2002 3.9212 9.2002 4.13337C9.2002 4.34555 9.28448 4.54903 9.43451 4.69906C9.58454 4.84909 9.78802 4.93337 10.0002 4.93337ZM10.0002 10.8C10.2124 10.8 10.4159 10.7158 10.5659 10.5657C10.7159 10.4157 10.8002 10.2122 10.8002 10C10.8002 9.78787 10.7159 9.58438 10.5659 9.43436C10.4159 9.28433 10.2124 9.20004 10.0002 9.20004C9.78802 9.20004 9.58454 9.28433 9.43451 9.43436C9.28448 9.58438 9.2002 9.78787 9.2002 10C9.2002 10.2122 9.28448 10.4157 9.43451 10.5657C9.58454 10.7158 9.78802 10.8 10.0002 10.8ZM10.0002 16.6667C10.2124 16.6667 10.4159 16.5824 10.5659 16.4324C10.7159 16.2824 10.8002 16.0789 10.8002 15.8667C10.8002 15.6545 10.7159 15.4511 10.5659 15.301C10.4159 15.151 10.2124 15.0667 10.0002 15.0667C9.78802 15.0667 9.58454 15.151 9.43451 15.301C9.28448 15.4511 9.2002 15.6545 9.2002 15.8667C9.2002 16.0789 9.28448 16.2824 9.43451 16.4324C9.58454 16.5824 9.78802 16.6667 10.0002 16.6667Z" stroke="white" stroke-width="1.5" stroke-linecap="round" stroke-linejoin="round"/>
</svg>
