<svg width="13" height="13" viewBox="0 0 13 13" fill="none" xmlns="http://www.w3.org/2000/svg">
<g clip-path="url(#clip0_873_624)">
<path d="M9.209 0.48999L7.9801 1.7189L11.2809 5.01968L12.5098 3.79077C13.1446 3.15601 13.1446 2.12769 12.5098 1.49292L11.5094 0.48999C10.8746 -0.144775 9.84631 -0.144775 9.21154 0.48999H9.209ZM7.40627 2.29272L1.48771 8.21382C1.22365 8.47788 1.03068 8.80542 0.924043 9.16343L0.0252146 12.2179C-0.0382619 12.4337 0.0201365 12.6648 0.177558 12.8222C0.33498 12.9796 0.566035 13.038 0.779316 12.9771L3.83381 12.0783C4.19182 11.9716 4.51935 11.7787 4.78342 11.5146L10.7071 5.59351L7.40627 2.29272Z" fill="#6C6C6C"/>
</g>
<defs>
<clipPath id="clip0_873_624">
<rect width="13" height="13" fill="white"/>
</clipPath>
</defs>
</svg>
