<svg width="301" height="81" viewBox="0 0 301 81" fill="none" xmlns="http://www.w3.org/2000/svg">
<path d="M50.385 33V8.25391H58.383C60.7642 8.25391 62.815 8.74951 64.5354 9.74072C66.2671 10.7205 67.5887 12.139 68.5002 13.9961C69.4117 15.8418 69.8674 18.0407 69.8674 20.5928C69.8674 23.1676 69.406 25.3836 68.4831 27.2407C67.5603 29.0978 66.2159 30.522 64.4499 31.5132C62.684 32.5044 60.5591 33 58.0754 33H50.385ZM57.8703 30.2656C60.8553 30.2656 63.0998 29.4225 64.6037 27.7363C66.1076 26.0501 66.8596 23.6689 66.8596 20.5928C66.8596 17.5508 66.1247 15.1924 64.655 13.5176C63.1853 11.8314 61.0262 10.9883 58.1779 10.9883H53.4611V30.2656H57.8703ZM79.3461 33.376C77.5801 33.376 76.0421 32.9829 74.7318 32.1968C73.4216 31.4106 72.4133 30.2998 71.7069 28.8643C71.012 27.4287 70.6645 25.7653 70.6645 23.874C70.6645 21.9827 71.012 20.3079 71.7069 18.8496C72.4133 17.3799 73.3988 16.2406 74.6635 15.4316C75.9395 14.6113 77.4093 14.2012 79.0727 14.2012C80.474 14.2012 81.7786 14.5145 82.9862 15.1411C84.1939 15.7563 85.1737 16.759 85.9257 18.1489C86.689 19.5275 87.0707 21.2992 87.0707 23.4639V24.6943H73.6039C73.6495 25.9818 73.9172 27.0812 74.4071 27.9927C74.897 28.9041 75.5635 29.5991 76.4066 30.0776C77.2611 30.5448 78.241 30.7783 79.3461 30.7783C80.3943 30.7783 81.2773 30.5846 81.995 30.1973C82.7242 29.7985 83.2768 29.2858 83.6527 28.6592H86.7973C86.501 29.5934 86.0054 30.4194 85.3105 31.1372C84.6269 31.8436 83.7724 32.3962 82.747 32.7949C81.733 33.1823 80.5994 33.376 79.3461 33.376ZM84.0971 22.1992C84.0971 21.1624 83.8863 20.2396 83.4648 19.4307C83.0546 18.6104 82.4678 17.9666 81.7045 17.4995C80.9412 17.0324 80.0639 16.7988 79.0727 16.7988C78.0359 16.7988 77.113 17.0438 76.3041 17.5337C75.5066 18.0236 74.8743 18.6844 74.4071 19.5161C73.9514 20.3364 73.6894 21.2308 73.621 22.1992H84.0971ZM96.276 33H93.234L86.398 14.4404H89.6109L94.6695 29.1719H94.8746L99.9332 14.4404H103.146L96.276 33ZM109.389 27.7363C109.389 25.8109 110.044 24.4551 111.354 23.6689C112.676 22.8828 114.345 22.4157 116.361 22.2676C117.136 22.2106 118.002 22.1593 118.959 22.1138C119.927 22.0568 120.736 22.0169 121.386 21.9941V20.4902C121.386 19.2939 121.027 18.3768 120.309 17.7388C119.603 17.0894 118.56 16.7646 117.182 16.7646C116.054 16.7646 115.131 16.9982 114.413 17.4653C113.695 17.9211 113.228 18.5192 113.012 19.2598H109.936C110.061 18.2686 110.448 17.3913 111.098 16.6279C111.747 15.8646 112.607 15.2721 113.678 14.8506C114.761 14.4176 115.974 14.2012 117.318 14.2012C119.096 14.2012 120.702 14.6569 122.138 15.5684C123.573 16.4684 124.291 18.2002 124.291 20.7637V33H121.386V30.4707H121.249C121.021 30.9492 120.668 31.4163 120.189 31.8721C119.722 32.3164 119.107 32.6924 118.344 33C117.592 33.2962 116.715 33.4443 115.712 33.4443C114.527 33.4443 113.456 33.2165 112.499 32.7607C111.542 32.305 110.784 31.6499 110.226 30.7954C109.668 29.9295 109.389 28.9098 109.389 27.7363ZM112.328 27.873C112.328 28.8187 112.681 29.5479 113.388 30.0605C114.105 30.5618 115.051 30.8125 116.225 30.8125C117.284 30.8125 118.201 30.6017 118.976 30.1802C119.762 29.7586 120.36 29.2004 120.771 28.5054C121.181 27.8104 121.386 27.0641 121.386 26.2666V24.4038L116.703 24.7285C115.313 24.8197 114.236 25.1216 113.473 25.6343C112.71 26.147 112.328 26.8932 112.328 27.873ZM152.921 33H149.982L136.583 13.7227H136.344V33H133.268V8.25391H136.242L149.64 27.5654H149.879V8.25391H152.921V33ZM155.564 14.4404H158.504V33H155.564V14.4404ZM157.034 11.3643C156.464 11.3643 155.98 11.1763 155.581 10.8003C155.182 10.4243 154.983 9.96289 154.983 9.41602C154.983 8.86914 155.182 8.40771 155.581 8.03174C155.98 7.65576 156.464 7.46777 157.034 7.46777C157.603 7.46777 158.093 7.65576 158.504 8.03174C158.914 8.40771 159.119 8.86914 159.119 9.41602C159.119 9.96289 158.914 10.4243 158.504 10.8003C158.093 11.1763 157.603 11.3643 157.034 11.3643ZM168.324 33.376C166.604 33.376 165.1 32.9715 163.812 32.1626C162.536 31.3423 161.556 30.2087 160.873 28.7617C160.189 27.3148 159.847 25.6628 159.847 23.8057C159.847 21.9372 160.195 20.2795 160.89 18.8325C161.596 17.3742 162.582 16.2406 163.846 15.4316C165.123 14.6113 166.592 14.2012 168.256 14.2012C169.566 14.2012 170.751 14.4461 171.81 14.936C172.87 15.4146 173.73 16.0981 174.391 16.9868C175.063 17.8641 175.479 18.8838 175.638 20.0459H172.699C172.562 19.4535 172.3 18.9123 171.913 18.4224C171.526 17.9325 171.024 17.5394 170.409 17.2432C169.805 16.9469 169.11 16.7988 168.324 16.7988C167.23 16.7988 166.262 17.0837 165.419 17.6533C164.587 18.223 163.938 19.0319 163.471 20.0801C163.015 21.1169 162.787 22.3245 162.787 23.7031C162.787 25.1273 163.009 26.3691 163.453 27.4287C163.909 28.4883 164.553 29.3086 165.385 29.8896C166.228 30.4593 167.207 30.7441 168.324 30.7441C169.429 30.7441 170.369 30.465 171.144 29.9067C171.93 29.3371 172.448 28.5452 172.699 27.5312H175.638C175.479 28.6478 175.08 29.6504 174.442 30.5391C173.804 31.4163 172.961 32.1113 171.913 32.624C170.865 33.1253 169.668 33.376 168.324 33.376ZM184.604 33.376C182.839 33.376 181.3 32.9829 179.99 32.1968C178.68 31.4106 177.672 30.2998 176.965 28.8643C176.27 27.4287 175.923 25.7653 175.923 23.874C175.923 21.9827 176.27 20.3079 176.965 18.8496C177.672 17.3799 178.657 16.2406 179.922 15.4316C181.198 14.6113 182.668 14.2012 184.331 14.2012C185.732 14.2012 187.037 14.5145 188.245 15.1411C189.452 15.7563 190.432 16.759 191.184 18.1489C191.947 19.5275 192.329 21.2992 192.329 23.4639V24.6943H178.862C178.908 25.9818 179.176 27.0812 179.666 27.9927C180.155 28.9041 180.822 29.5991 181.665 30.0776C182.52 30.5448 183.499 30.7783 184.604 30.7783C185.653 30.7783 186.536 30.5846 187.253 30.1973C187.983 29.7985 188.535 29.2858 188.911 28.6592H192.056C191.759 29.5934 191.264 30.4194 190.569 31.1372C189.885 31.8436 189.031 32.3962 188.005 32.7949C186.991 33.1823 185.858 33.376 184.604 33.376ZM189.355 22.1992C189.355 21.1624 189.145 20.2396 188.723 19.4307C188.313 18.6104 187.726 17.9666 186.963 17.4995C186.2 17.0324 185.322 16.7988 184.331 16.7988C183.294 16.7988 182.371 17.0438 181.562 17.5337C180.765 18.0236 180.133 18.6844 179.666 19.5161C179.21 20.3364 178.948 21.2308 178.879 22.1992H189.355ZM200.417 33V8.25391H208.415C210.797 8.25391 212.847 8.74951 214.568 9.74072C216.3 10.7205 217.621 12.139 218.533 13.9961C219.444 15.8418 219.9 18.0407 219.9 20.5928C219.9 23.1676 219.438 25.3836 218.516 27.2407C217.593 29.0978 216.248 30.522 214.482 31.5132C212.716 32.5044 210.592 33 208.108 33H200.417ZM207.903 30.2656C210.888 30.2656 213.132 29.4225 214.636 27.7363C216.14 26.0501 216.892 23.6689 216.892 20.5928C216.892 17.5508 216.157 15.1924 214.687 13.5176C213.218 11.8314 211.059 10.9883 208.21 10.9883H203.494V30.2656H207.903ZM220.697 27.7363C220.697 25.8109 221.352 24.4551 222.662 23.6689C223.984 22.8828 225.653 22.4157 227.67 22.2676C228.444 22.2106 229.31 22.1593 230.267 22.1138C231.236 22.0568 232.045 22.0169 232.694 21.9941V20.4902C232.694 19.2939 232.335 18.3768 231.617 17.7388C230.911 17.0894 229.868 16.7646 228.49 16.7646C227.362 16.7646 226.439 16.9982 225.721 17.4653C225.004 17.9211 224.536 18.5192 224.32 19.2598H221.244C221.369 18.2686 221.756 17.3913 222.406 16.6279C223.055 15.8646 223.915 15.2721 224.986 14.8506C226.069 14.4176 227.282 14.2012 228.627 14.2012C230.404 14.2012 232.01 14.6569 233.446 15.5684C234.881 16.4684 235.599 18.2002 235.599 20.7637V33H232.694V30.4707H232.557C232.329 30.9492 231.976 31.4163 231.498 31.8721C231.031 32.3164 230.415 32.6924 229.652 33C228.9 33.2962 228.023 33.4443 227.02 33.4443C225.835 33.4443 224.764 33.2165 223.807 32.7607C222.85 32.305 222.093 31.6499 221.534 30.7954C220.976 29.9295 220.697 28.9098 220.697 27.7363ZM223.636 27.873C223.636 28.8187 223.99 29.5479 224.696 30.0605C225.414 30.5618 226.359 30.8125 227.533 30.8125C228.592 30.8125 229.51 30.6017 230.284 30.1802C231.07 29.7586 231.669 29.2004 232.079 28.5054C232.489 27.8104 232.694 27.0641 232.694 26.2666V24.4038L228.011 24.7285C226.621 24.8197 225.545 25.1216 224.781 25.6343C224.018 26.147 223.636 26.8932 223.636 27.873ZM239.062 39.9727C238.47 39.9727 237.923 39.9499 237.422 39.9043V37.2725C237.832 37.318 238.31 37.3408 238.857 37.3408C239.347 37.3408 239.757 37.2896 240.088 37.187C240.418 37.0845 240.748 36.8281 241.079 36.418C241.409 36.0192 241.728 35.3926 242.036 34.5381L242.583 33.1367L235.713 14.4404H238.926L243.984 29.1719H244.189L249.248 14.4404H252.461L244.599 35.666C244.053 37.113 243.323 38.1896 242.412 38.896C241.5 39.6138 240.384 39.9727 239.062 39.9727Z" fill="url(#paint0_linear_1030_771)"/>
<path d="M100.471 57.6836H102.686V59.3008H100.471V64.5566H98.52V52.6914H100.471V57.6836ZM97.3774 56.0137H87.9555V54.4492H91.6996V52.6738H93.6508V54.4492H97.3774V56.0137ZM92.6664 56.6641C93.4223 56.6641 94.0932 56.79 94.6791 57.042C95.2651 57.2939 95.7221 57.6514 96.0502 58.1143C96.3784 58.5713 96.5453 59.1016 96.5512 59.7051C96.5453 60.3027 96.3784 60.8301 96.0502 61.2871C95.7221 61.7383 95.2651 62.0898 94.6791 62.3418C94.0932 62.5879 93.4223 62.7109 92.6664 62.7109C91.9047 62.7109 91.228 62.5879 90.6362 62.3418C90.0444 62.0898 89.5844 61.7383 89.2563 61.2871C88.9282 60.8301 88.7641 60.3027 88.7641 59.7051C88.7641 59.1016 88.9282 58.5713 89.2563 58.1143C89.5844 57.6514 90.0444 57.2939 90.6362 57.042C91.228 56.79 91.9047 56.6641 92.6664 56.6641ZM92.6664 58.1758C92.0512 58.1758 91.562 58.3105 91.1987 58.5801C90.8412 58.8496 90.6625 59.2246 90.6625 59.7051C90.6625 60.1738 90.8442 60.543 91.2075 60.8125C91.5707 61.082 92.0571 61.2109 92.6664 61.1992C93.2758 61.2109 93.7651 61.082 94.1342 60.8125C94.5034 60.543 94.6879 60.1738 94.6879 59.7051C94.6879 59.2246 94.5034 58.8496 94.1342 58.5801C93.7709 58.3105 93.2817 58.1758 92.6664 58.1758ZM101.104 68.248H90.2934V63.625H92.2446V66.666H101.104V68.248ZM115.102 58.7031H104.133V53.166H106.102V57.1562H115.102V58.7031ZM116.737 61.832H110.602V64.8027H108.668V61.832H102.235V60.2852H116.737V61.832ZM115.225 68.248H103.992V63.5195H105.926V66.666H115.225V68.248ZM130.242 68.5645H128.361V52.6738H130.242V68.5645ZM126.973 67.791H125.109V60.2324H123.598C123.539 61.2578 123.357 62.1484 123.053 62.9043C122.754 63.6543 122.352 64.2314 121.849 64.6357C121.345 65.0342 120.768 65.2305 120.117 65.2246C119.432 65.2305 118.828 65.0049 118.307 64.5479C117.791 64.085 117.393 63.4258 117.111 62.5703C116.83 61.709 116.689 60.7012 116.689 59.5469C116.689 58.3926 116.83 57.3906 117.111 56.541C117.393 55.6855 117.791 55.0293 118.307 54.5723C118.828 54.1152 119.432 53.8867 120.117 53.8867C120.756 53.8867 121.321 54.0771 121.813 54.458C122.311 54.8389 122.71 55.3867 123.009 56.1016C123.313 56.8164 123.504 57.666 123.58 58.6504H125.109V52.9551H126.973V67.791ZM120.117 55.7324C119.783 55.7266 119.493 55.8701 119.247 56.1631C119.001 56.4561 118.813 56.8896 118.685 57.4639C118.556 58.0381 118.494 58.7324 118.5 59.5469C118.494 60.3613 118.556 61.0557 118.685 61.6299C118.813 62.2041 119.001 62.6377 119.247 62.9307C119.493 63.2236 119.783 63.3672 120.117 63.3613C120.65 63.373 121.063 63.0479 121.356 62.3857C121.655 61.7236 121.805 60.7773 121.805 59.5469C121.805 58.3164 121.655 57.3701 121.356 56.708C121.063 56.0459 120.65 55.7207 120.117 55.7324ZM148.359 66.6484H133.839V65.0488H140.097V61.9551H135.439V53.7285H137.39V56.3301H144.755V53.7285H146.707V61.9551H142.031V65.0488H148.359V66.6484ZM144.755 60.373V57.8945H137.39V60.373H144.755ZM161.003 58.7207H149.999V53.2539H151.933V57.1738H161.003V58.7207ZM162.638 62.1133H148.118V60.5664H162.638V62.1133ZM161.109 68.1953H149.859V63.5195H151.81V66.6133H161.109V68.1953ZM168.38 67H166.094V54.2734H168.38V67ZM168.93 54.2734H179.073V56.1895H175.153V67H172.868V56.1895H168.93V54.2734ZM194.887 62.5527H183.742V53.9219H194.746V55.5039H185.729V57.4199H194.377V58.9492H185.729V61.0059H194.887V62.5527ZM196.486 66.6309H181.967V65.0312H196.486V66.6309ZM202.556 58.7734H198.847V60.7598C199.826 60.748 200.679 60.7158 201.405 60.6631C202.137 60.6045 202.885 60.502 203.646 60.3555L203.84 61.9023C202.961 62.0723 202.094 62.1865 201.238 62.2451C200.383 62.2979 199.304 62.3242 198.004 62.3242H196.931V57.3496H200.658V55.4336H196.914V53.9043H202.556V58.7734ZM209.851 64.627H207.988V52.6914H209.851V64.627ZM206.635 64.2227H204.789V58.4219H203.154V56.8047H204.789V52.9727H206.635V64.2227ZM210.291 68.248H199.217V63.4316H201.168V66.666H210.291V68.248ZM223.462 61.6914H212.318V54.0625H223.339V55.6445H214.252V60.127H223.462V61.6914ZM225.08 66.543H210.56V64.9258H225.08V66.543Z" fill="url(#paint1_linear_1030_771)"/>
<defs>
<linearGradient id="paint0_linear_1030_771" x1="0" y1="21" x2="301" y2="21" gradientUnits="userSpaceOnUse">
<stop stop-color="#E063FF"/>
<stop offset="1" stop-color="#DE6985"/>
</linearGradient>
<linearGradient id="paint1_linear_1030_771" x1="19" y1="65.5" x2="294" y2="65.5" gradientUnits="userSpaceOnUse">
<stop stop-color="#E063FF"/>
<stop offset="1" stop-color="#DE6985"/>
</linearGradient>
</defs>
</svg>
