<svg width="18" height="20" viewBox="0 0 18 20" fill="none" xmlns="http://www.w3.org/2000/svg">
<path d="M0 1.87518C0 0.839925 1.00781 0 2.25 0V1.87518V17.2439L8.34844 13.6146C8.7375 13.3802 9.26719 13.3802 9.65625 13.6146L15.75 17.2439V1.87518H2.25V0H15.75C16.9922 0 18 0.839925 18 1.87518V19.0643C18 19.4159 17.7656 19.7363 17.3906 19.8965C17.0156 20.0566 16.5656 20.0293 16.2234 19.8261L9 15.5288L1.77656 19.8261C1.43438 20.0293 0.984375 20.0566 0.609375 19.8965C0.234375 19.7363 0 19.4159 0 19.0643V1.87518Z" fill="white"/>
</svg>
