<svg width="20" height="20" viewBox="0 0 20 20" fill="none" xmlns="http://www.w3.org/2000/svg">
<path d="M11.0089 0.366229C10.4509 -0.122076 9.54464 -0.122076 8.98661 0.366229L3.27232 5.36647C2.71429 5.85478 2.71429 6.64779 3.27232 7.13609C3.83036 7.6244 4.73661 7.6244 5.29464 7.13609L8.57143 4.26876V12.4996C8.57143 13.1911 9.20982 13.7497 10 13.7497C10.7902 13.7497 11.4286 13.1911 11.4286 12.4996V4.26876L14.7054 7.13609C15.2634 7.6244 16.1696 7.6244 16.7277 7.13609C17.2857 6.64779 17.2857 5.85478 16.7277 5.36647L11.0134 0.366229H11.0089ZM2.85714 13.7497C2.85714 13.0583 2.21875 12.4996 1.42857 12.4996C0.638393 12.4996 0 13.0583 0 13.7497V16.2498C0 18.3202 1.91964 20 4.28571 20H15.7143C18.0804 20 20 18.3202 20 16.2498V13.7497C20 13.0583 19.3616 12.4996 18.5714 12.4996C17.7812 12.4996 17.1429 13.0583 17.1429 13.7497V16.2498C17.1429 16.9413 16.5045 17.4999 15.7143 17.4999H4.28571C3.49554 17.4999 2.85714 16.9413 2.85714 16.2498V13.7497Z" fill="white"/>
</svg>
