<svg width="91" height="22" viewBox="0 0 91 22" fill="none" xmlns="http://www.w3.org/2000/svg">
<path d="M7.16176 16H5.38685V2.44608H0.52599V0.872855H12.0226V2.44608H7.16176V16ZM19.7237 14.7596C18.4732 15.721 17.095 16.2017 15.589 16.2017C14.5402 16.2017 13.5989 15.9664 12.7653 15.4958C11.9316 15.0251 11.2727 14.3864 10.7886 13.5797C10.3113 12.7662 10.0726 11.8484 10.0726 10.8265C10.0726 9.84493 10.2945 8.97092 10.7382 8.20448C11.182 7.43131 11.7904 6.82287 12.5636 6.37914C13.3367 5.93541 14.2141 5.71354 15.1957 5.71354C16.2042 5.71354 17.0916 5.95558 17.8581 6.43964C18.6312 6.92371 19.233 7.59603 19.6632 8.4566C20.0935 9.31716 20.3087 10.3122 20.3087 11.4417V11.7644H11.8677C11.9887 12.356 12.2308 12.8704 12.5938 13.3074C12.9636 13.7444 13.4208 14.0839 13.9653 14.3259C14.5099 14.568 15.1184 14.689 15.7907 14.689C16.9471 14.689 18.0026 14.3091 18.9573 13.5494L19.7237 14.7596ZM11.8072 10.3525H18.7455C18.6716 9.72728 18.4766 9.1827 18.1606 8.7188C17.8513 8.24818 17.448 7.88177 16.9504 7.61956C16.4596 7.35736 15.905 7.22626 15.2865 7.22626C14.6612 7.22626 14.0965 7.35736 13.5922 7.61956C13.0947 7.88177 12.6879 8.24818 12.372 8.7188C12.0627 9.1827 11.8744 9.72728 11.8072 10.3525ZM29.5729 14.5478C29.0821 15.0789 28.5006 15.489 27.8283 15.7781C27.156 16.0605 26.4332 16.2017 25.66 16.2017C24.6583 16.2017 23.7574 15.9731 22.9573 15.5159C22.164 15.0588 21.5354 14.4335 21.0715 13.6402C20.6143 12.8468 20.3857 11.9526 20.3857 10.9576C20.3857 9.95587 20.6143 9.06168 21.0715 8.27507C21.5354 7.48174 22.164 6.85648 22.9573 6.39931C23.7574 5.94213 24.6583 5.71354 25.66 5.71354C26.4265 5.71354 27.1459 5.85473 27.8182 6.1371C28.4905 6.41947 29.0721 6.82623 29.5628 7.35736L28.5745 8.39609C28.2182 8.01959 27.7913 7.73049 27.2938 7.5288C26.803 7.3271 26.2819 7.22626 25.7306 7.22626C25.0247 7.22626 24.3961 7.38761 23.8448 7.71032C23.3002 8.02631 22.8699 8.46332 22.5539 9.02134C22.2447 9.57937 22.09 10.2214 22.09 10.9475C22.09 11.6736 22.2447 12.3191 22.5539 12.8838C22.8699 13.4486 23.3002 13.8923 23.8448 14.215C24.3961 14.531 25.0247 14.689 25.7306 14.689C26.2819 14.689 26.8063 14.5881 27.3039 14.3864C27.8014 14.178 28.2249 13.8889 28.5745 13.5191L29.5729 14.5478ZM30.4568 16V0.872855H32.1107V7.42795C32.8704 6.28501 34.0469 5.71354 35.6403 5.71354C36.9782 5.71354 38.0203 6.11357 38.7666 6.91363C39.5196 7.70696 39.8961 8.81629 39.8961 10.2416V16H38.2422V10.6248C38.2422 9.54239 37.9733 8.70199 37.4354 8.10363C36.9043 7.49854 36.1614 7.196 35.2067 7.196C34.2453 7.196 33.4889 7.50191 32.9376 8.11372C32.3863 8.72552 32.1107 9.56256 32.1107 10.6248V16H30.4568ZM40.2559 14.5276L41.1131 13.1662C41.5501 13.5225 41.9871 13.8183 42.4241 14.0536C42.8612 14.289 43.3049 14.4638 43.7553 14.578C44.2125 14.6923 44.6764 14.7495 45.147 14.7495C45.8328 14.7495 46.4312 14.6352 46.9421 14.4066C47.4598 14.178 47.8632 13.862 48.1523 13.4586C48.4414 13.0485 48.5859 12.5779 48.5859 12.0468C48.5859 11.4686 48.4212 10.9912 48.0918 10.6147C47.7691 10.2315 47.3489 9.90544 46.8312 9.63651C46.3135 9.36759 45.7622 9.11211 45.1773 8.87007C44.6865 8.66165 44.1991 8.43979 43.715 8.20448C43.2309 7.96917 42.7906 7.69688 42.3939 7.38761C42.0039 7.07162 41.6913 6.69176 41.456 6.24803C41.2207 5.8043 41.103 5.26981 41.103 4.64456C41.103 3.8445 41.3047 3.13857 41.7081 2.52676C42.1115 1.91495 42.6695 1.4376 43.3822 1.09472C44.1016 0.751838 44.9285 0.580397 45.863 0.580397C46.495 0.580397 47.1304 0.664437 47.7691 0.832516C48.4078 0.993872 49.0263 1.23255 49.6247 1.54853L48.8986 3.00074C48.4279 2.72509 47.9338 2.51331 47.4161 2.3654C46.9051 2.21749 46.4009 2.14354 45.9034 2.14354C45.3117 2.14354 44.7907 2.24438 44.3402 2.44608C43.8965 2.64105 43.5469 2.9167 43.2914 3.27303C43.0427 3.62263 42.9183 4.03275 42.9183 4.50337C42.9183 5.02778 43.0696 5.46815 43.3721 5.82447C43.6814 6.1808 44.078 6.49007 44.5621 6.75227C45.0529 7.00775 45.5706 7.25651 46.1152 7.49854C46.6329 7.72713 47.1438 7.96917 47.6481 8.22465C48.159 8.47341 48.6196 8.76922 49.0297 9.11211C49.4465 9.44827 49.7793 9.85166 50.0281 10.3223C50.2768 10.7929 50.4012 11.361 50.4012 12.0266C50.4012 12.8804 50.1861 13.6301 49.7558 14.2755C49.3255 14.9142 48.7204 15.4117 47.9405 15.7681C47.1673 16.1244 46.2597 16.3025 45.2176 16.3025C44.3033 16.3025 43.4326 16.1546 42.6057 15.8588C41.7787 15.563 40.9955 15.1193 40.2559 14.5276ZM61.7635 16H59.8474L57.5682 8.29524L55.2891 16H53.373L50.1559 5.91524H51.9107L54.3209 13.983L56.7917 5.91524H58.3448L60.8155 13.983L63.2359 5.91524H64.9906L61.7635 16ZM66.54 2.72845C66.2577 2.72845 66.019 2.63097 65.824 2.43599C65.6358 2.2343 65.5417 1.99226 65.5417 1.70989C65.5417 1.43424 65.6358 1.19893 65.824 1.00396C66.019 0.808985 66.2577 0.711499 66.54 0.711499C66.8291 0.711499 67.0712 0.808985 67.2662 1.00396C67.4611 1.19893 67.5586 1.43424 67.5586 1.70989C67.5586 1.99226 67.4611 2.2343 67.2662 2.43599C67.0712 2.63097 66.8291 2.72845 66.54 2.72845ZM67.367 16H65.7131V5.91524H67.367V16ZM70.7619 21.0424H69.108V5.91524H70.5804L70.6611 7.38761C71.1317 6.86993 71.6998 6.46318 72.3654 6.16736C73.031 5.86481 73.7605 5.71354 74.5538 5.71354C75.5421 5.71354 76.4262 5.94213 77.2061 6.39931C77.9927 6.85648 78.6112 7.48174 79.0617 8.27507C79.5189 9.06168 79.7475 9.95587 79.7475 10.9576C79.7475 11.9526 79.5189 12.8468 79.0617 13.6402C78.6112 14.4335 77.9927 15.0588 77.2061 15.5159C76.4262 15.9731 75.5421 16.2017 74.5538 16.2017C73.7941 16.2017 73.0881 16.0639 72.436 15.7882C71.7906 15.5126 71.2326 15.1293 70.7619 14.6386V21.0424ZM74.4227 14.689C75.1286 14.689 75.7539 14.531 76.2985 14.215C76.843 13.8923 77.2666 13.4486 77.5691 12.8838C77.8784 12.3191 78.033 11.6736 78.033 10.9475C78.033 10.2147 77.8784 9.56928 77.5691 9.01126C77.2599 8.44651 76.833 8.00278 76.2884 7.68007C75.7505 7.35736 75.132 7.196 74.4328 7.196C73.7672 7.196 73.1655 7.34391 72.6276 7.63973C72.0965 7.93555 71.6662 8.3423 71.3368 8.85999C71.0073 9.37095 70.8157 9.95587 70.7619 10.6147V11.3005C70.8157 11.9594 71.004 12.5443 71.3267 13.0552C71.6494 13.5662 72.0763 13.9662 72.6074 14.2553C73.1453 14.5444 73.7504 14.689 74.4227 14.689ZM89.4756 14.7596C88.2251 15.721 86.8469 16.2017 85.3409 16.2017C84.2921 16.2017 83.3508 15.9664 82.5171 15.4958C81.6835 15.0251 81.0246 14.3864 80.5405 13.5797C80.0632 12.7662 79.8245 11.8484 79.8245 10.8265C79.8245 9.84493 80.0464 8.97092 80.4901 8.20448C80.9338 7.43131 81.5423 6.82287 82.3154 6.37914C83.0886 5.93541 83.966 5.71354 84.9476 5.71354C85.956 5.71354 86.8435 5.95558 87.6099 6.43964C88.3831 6.92371 88.9848 7.59603 89.4151 8.4566C89.8454 9.31716 90.0605 10.3122 90.0605 11.4417V11.7644H81.6196C81.7406 12.356 81.9826 12.8704 82.3457 13.3074C82.7155 13.7444 83.1726 14.0839 83.7172 14.3259C84.2618 14.568 84.8702 14.689 85.5426 14.689C86.6989 14.689 87.7545 14.3091 88.7092 13.5494L89.4756 14.7596ZM81.5591 10.3525H88.4974C88.4234 9.72728 88.2285 9.1827 87.9125 8.7188C87.6032 8.24818 87.1998 7.88177 86.7023 7.61956C86.2115 7.35736 85.6569 7.22626 85.0383 7.22626C84.4131 7.22626 83.8483 7.35736 83.3441 7.61956C82.8466 7.88177 82.4398 8.24818 82.1238 8.7188C81.8146 9.1827 81.6263 9.72728 81.5591 10.3525Z" fill="url(#paint0_linear_118_44)"/>
<defs>
<linearGradient id="paint0_linear_118_44" x1="0" y1="8" x2="91" y2="8" gradientUnits="userSpaceOnUse">
<stop stop-color="#E063FF"/>
<stop offset="1" stop-color="#DE6985"/>
</linearGradient>
</defs>
</svg>
