<svg width="40" height="46" viewBox="0 0 40 46" fill="none" xmlns="http://www.w3.org/2000/svg">
<g clip-path="url(#clip0_871_617)">
<path d="M20 23C23.031 23 25.9379 21.7884 28.0812 19.6317C30.2245 17.4751 31.4286 14.55 31.4286 11.5C31.4286 8.45001 30.2245 5.52494 28.0812 3.36827C25.9379 1.2116 23.031 0 20 0C16.969 0 14.0621 1.2116 11.9188 3.36827C9.77551 5.52494 8.57143 8.45001 8.57143 11.5C8.57143 14.55 9.77551 17.4751 11.9188 19.6317C14.0621 21.7884 16.969 23 20 23ZM15.9196 27.3125C7.125 27.3125 0 34.482 0 43.3316C0 44.8051 1.1875 46 2.65179 46H37.3482C38.8125 46 40 44.8051 40 43.3316C40 34.482 32.875 27.3125 24.0804 27.3125H15.9196Z" fill="#2D2F3D"/>
</g>
<defs>
<clipPath id="clip0_871_617">
<rect width="40" height="46" fill="white"/>
</clipPath>
</defs>
</svg>
